# xmcd
#
# Track frame offsets:
#	150
#	4968
#	14633
#	24657
#	40004
#	43874
#	58343
#	70318
#	71306
#	84045
#	105311
#	120781
#	133779
#	134998
#	149265
#	150623
#	166853
#	169516
#	188031
#	199822
#	215100
#	217348
#	235732
#	237372
#	281343
#
# Disc length: 4208 seconds
#
# Revision: 1
# Processed by: cddbd v1.4PL0 Copyright (c) Steve Scherf et al.
# Submitted via: EasyCDDAExtractor 5.0.7
#
DISCID=6b106e19
DTITLE=Ricky Skaggs and Kentucky Thunder - Live At The Charleston Music Hall
DYEAR=2003
DGENRE=Bluegrass
TTITLE0=Intro
TTITLE1=Black Eyed Suzie
TTITLE2=How Mountain Girls Can Love
TTITLE3=On A Lonesome Night
TTITLE4=Song Intro
TTITLE5=Amanda Jewell
TTITLE6=Why Did You Wander
TTITLE7=Song Intro
TTITLE8=A Simple Life
TTITLE9=Song Intro
TTITLE10=Goin' To The Ceili
TTITLE11=The Old Home Place
TTITLE12=Song Intro
TTITLE13=I Heard My Mother Call My Name In Prayer
TTITLE14=Song Intro
TTITLE15=Crossville
TTITLE16=Song Intro
TTITLE17=Somewhere Nice Forever
TTITLE18=Uncle Pen
TTITLE19=Pig In A Pen
TTITLE20=Song Intro
TTITLE21=Cat's In The Cradle
TTITLE22=Song Intro
TTITLE23=Get Up John
TTITLE24=Untitled
EXTD=
EXTT0=
EXTT1=
EXTT2=
EXTT3=
EXTT4=
EXTT5=
EXTT6=
EXTT7=
EXTT8=
EXTT9=
EXTT10=
EXTT11=
EXTT12=
EXTT13=
EXTT14=
EXTT15=
EXTT16=
EXTT17=
EXTT18=
EXTT19=
EXTT20=
EXTT21=
EXTT22=
EXTT23=
EXTT24=
PLAYORDER=
